<?xml version="1.0" encoding="UTF-8" standalone="no"?>
<!DOCTYPE svg PUBLIC "-//W3C//DTD SVG 1.1//EN" "http://www.w3.org/Graphics/SVG/1.1/DTD/svg11.dtd">
<svg width="100%" height="100%" viewBox="0 0 146 32" version="1.1" xmlns="http://www.w3.org/2000/svg" xmlns:xlink="http://www.w3.org/1999/xlink" xml:space="preserve" xmlns:serif="http://www.serif.com/" style="fill-rule:evenodd;clip-rule:evenodd;stroke-linejoin:round;stroke-miterlimit:2;">
    <path d="M33.149,26.206L35.877,6.709C37.397,6.557 39.515,6.482 42.233,6.482C44.615,6.482 46.265,6.86 47.182,7.613C48.1,8.366 48.421,9.724 48.137,11.681C47.932,13.094 47.528,14.15 46.929,14.845C46.33,15.543 45.437,15.948 44.256,16.058L44.228,16.199C46.816,16.406 47.867,18.16 47.377,21.457C47.076,23.417 46.44,24.734 45.464,25.412C44.489,26.089 42.877,26.429 40.628,26.429C37.349,26.433 34.857,26.357 33.149,26.206ZM36.216,24.005L40.21,24.033C41.747,24.033 42.825,23.813 43.445,23.369C44.064,22.925 44.468,22.055 44.653,20.756C44.841,19.363 44.694,18.424 44.218,17.943C43.739,17.461 42.743,17.214 41.223,17.193L37.174,17.193L36.216,24.005ZM37.482,15.017L41.364,15.017C42.712,15.017 43.684,14.79 44.276,14.339C44.869,13.889 45.255,13.039 45.444,11.794C45.611,10.608 45.461,9.828 44.992,9.449C44.523,9.075 43.558,8.885 42.096,8.885L38.328,8.885L37.482,15.017Z" style="fill:rgb(0,77,97);fill-rule:nonzero;"/>
    <path d="M60.377,12.417L63.218,12.417C62.205,16.901 60.883,20.697 59.251,23.806C57.789,26.595 56.338,28.572 54.904,29.741C53.47,30.91 51.758,31.663 49.77,32L49.263,30.05C50.465,29.768 51.512,29.345 52.412,28.778C53.312,28.214 54.175,27.354 55,26.206L53.733,26.206C53.302,26.206 52.936,26.089 52.638,25.852C52.337,25.618 52.149,25.291 52.077,24.875L49.434,12.414L52.306,12.414L54.387,23.575C54.442,23.895 54.63,24.057 54.948,24.057L56.328,24.057C56.403,23.926 56.506,23.73 56.636,23.479C56.766,23.225 56.851,23.06 56.889,22.984C58.539,19.538 59.703,16.017 60.377,12.417Z" style="fill:rgb(0,77,97);fill-rule:nonzero;"/>
    <path d="M68.814,14.535L67.715,22.279C67.623,22.939 67.681,23.386 67.897,23.62C68.112,23.857 68.547,23.974 69.204,23.974L71.258,23.974L71.371,26.092C70.546,26.337 69.478,26.46 68.164,26.46C66.945,26.46 66.069,26.12 65.535,25.443C65.001,24.765 64.816,23.795 64.987,22.533L66.113,14.535L63.611,14.535L63.865,12.558L66.425,12.417L67.017,8.377L69.69,8.377L69.129,12.417L73.349,12.417L73.068,14.535L68.814,14.535Z" style="fill:rgb(0,77,97);fill-rule:nonzero;"/>
    <path d="M84.651,23.919L84.819,25.755C83.487,26.282 81.601,26.546 79.164,26.546C76.82,26.546 75.197,25.931 74.297,24.696C73.397,23.462 73.116,21.547 73.452,18.947C73.808,16.292 74.533,14.477 75.632,13.507C76.727,12.537 78.534,12.053 81.047,12.053C83.186,12.053 84.637,12.431 85.407,13.184C86.177,13.937 86.458,15.048 86.253,16.519C86.027,17.857 85.503,18.823 84.678,19.415C83.853,20.01 82.587,20.371 80.882,20.501L76.128,20.924C76.108,22.224 76.382,23.104 76.943,23.565C77.504,24.026 78.387,24.256 79.585,24.256C80.862,24.256 82.549,24.146 84.651,23.919ZM76.296,18.889L80.882,18.466C81.745,18.411 82.375,18.225 82.768,17.915C83.162,17.606 83.415,17.063 83.528,16.289C83.641,15.405 83.494,14.858 83.094,14.649C82.69,14.442 81.872,14.339 80.632,14.339C79.209,14.339 78.199,14.635 77.61,15.23C77.015,15.821 76.577,17.042 76.296,18.889Z" style="fill:rgb(0,77,97);fill-rule:nonzero;"/>
    <path d="M92.554,6.427L91.794,12.135C91.626,13.38 91.38,14.432 91.062,15.299C91.962,14.394 92.951,13.631 94.029,13.008C95.107,12.386 96.107,12.077 97.024,12.077C98.112,12.077 98.948,12.279 99.526,12.685C100.108,13.091 100.519,13.844 100.765,14.944C101.008,16.045 100.97,17.558 100.652,19.48C100.447,21.024 100.156,22.282 99.779,23.252C99.403,24.222 98.917,24.944 98.318,25.415C97.719,25.886 97.11,26.196 96.49,26.347C95.871,26.498 95.073,26.574 94.101,26.574C91.815,26.574 89.508,26.233 87.18,25.556L89.853,6.427L92.554,6.427ZM91.007,17.448L90.079,24.229C91.428,24.284 92.431,24.315 93.088,24.315C94.868,24.315 96.042,24.029 96.603,23.452C97.164,22.877 97.596,21.488 97.897,19.284C98.16,17.231 98.188,15.911 97.982,15.326C97.777,14.742 97.243,14.449 96.381,14.449C95.049,14.453 93.259,15.45 91.007,17.448Z" style="fill:rgb(0,77,97);fill-rule:nonzero;"/>
    <path d="M114.213,26.206L112.074,26.206L112.187,23.661C110.537,25.584 108.569,26.543 106.279,26.543C104.609,26.543 103.486,25.996 102.904,24.903C102.322,23.809 102.22,21.887 102.596,19.14C102.801,17.613 103.092,16.365 103.469,15.395C103.845,14.425 104.342,13.703 104.961,13.232C105.581,12.761 106.217,12.445 106.875,12.286C107.532,12.128 108.374,12.046 109.407,12.046C111.639,12.046 113.881,12.29 116.13,12.782L114.213,26.206ZM112.159,21.234L113.145,14.394C111.42,14.356 110.455,14.339 110.249,14.339C109.274,14.339 108.535,14.387 108.028,14.48C107.521,14.573 107.076,14.814 106.693,15.202C106.31,15.587 106.026,16.083 105.848,16.684C105.67,17.286 105.495,18.173 105.327,19.339C105.064,21.392 105.033,22.712 105.228,23.293C105.427,23.878 105.964,24.17 106.847,24.17C107.71,24.17 108.552,23.93 109.38,23.448C110.198,22.974 111.129,22.234 112.159,21.234Z" style="fill:rgb(0,77,97);fill-rule:nonzero;"/>
    <path d="M121.301,12.417L121.161,15.384C123.636,13.163 125.802,12.049 127.657,12.049C128.821,12.049 129.701,12.383 130.3,13.053C130.899,13.724 131.104,14.68 130.919,15.921L129.458,26.206L126.757,26.206L128.078,16.598C128.191,15.732 128.157,15.144 127.979,14.831C127.801,14.521 127.411,14.363 126.812,14.363C126.042,14.363 125.241,14.601 124.406,15.068C123.571,15.539 122.479,16.313 121.13,17.386L119.922,26.203L117.194,26.203L119.135,12.414L121.301,12.414L121.301,12.417Z" style="fill:rgb(0,77,97);fill-rule:nonzero;"/>
    <path d="M142.902,12.417L145.688,12.417C144.901,14.886 143.381,16.928 141.133,18.548C141.413,18.981 141.694,19.528 141.978,20.188L144.651,26.206L141.725,26.206L139.082,19.848C138.237,20.302 137.152,20.828 135.82,21.43L135.119,26.206L132.418,26.206L135.174,6.427L137.902,6.427L136.662,15.694C136.495,16.825 136.194,17.953 135.762,19.084C137.542,18.235 139.086,17.245 140.39,16.103C141.687,14.965 142.526,13.737 142.902,12.417Z" style="fill:rgb(0,77,97);fill-rule:nonzero;"/>
    <rect x="0" y="20.03" width="13.475" height="6.771" style="fill:rgb(0,77,97);fill-rule:nonzero;"/>
    <rect x="6.691" y="6.537" width="13.475" height="13.538" style="fill:rgb(0,77,97);fill-rule:nonzero;"/>
    <rect x="0.092" y="0" width="6.555" height="6.492" style="fill:rgb(0,77,97);fill-rule:nonzero;"/>
    <rect x="20.119" y="0" width="6.462" height="6.492" style="fill:rgb(0,77,97);fill-rule:nonzero;"/>
</svg>
